<?xml version="1.0" encoding="UTF-8"?>
<svg xmlns="http://www.w3.org/2000/svg" xmlns:xlink="http://www.w3.org/1999/xlink" viewBox="0 0 30 30" width="30px" height="30px">
<g id="surface105609826">
<path style=" stroke:none;fill-rule:nonzero;fill:rgb(100%,100%,100%);fill-opacity:1;" d="M 25.121094 6.945312 C 22.695312 4.996094 18.863281 4.667969 18.699219 4.652344 C 18.445312 4.632812 18.203125 4.777344 18.097656 5.011719 C 18.09375 5.019531 17.878906 5.640625 17.671875 6.238281 C 20.488281 6.730469 22.402344 7.824219 22.503906 7.886719 C 22.984375 8.164062 23.144531 8.777344 22.863281 9.253906 C 22.679688 9.570312 22.34375 9.75 22 9.75 C 21.828125 9.75 21.65625 9.707031 21.5 9.613281 C 21.472656 9.597656 18.664062 8 15.003906 8 C 11.339844 8 8.53125 9.597656 8.503906 9.613281 C 8.027344 9.890625 7.414062 9.730469 7.136719 9.25 C 6.859375 8.773438 7.019531 8.164062 7.496094 7.886719 C 7.597656 7.824219 9.519531 6.726562 12.34375 6.234375 C 12.128906 5.628906 11.90625 5.019531 11.902344 5.011719 C 11.796875 4.777344 11.554688 4.628906 11.300781 4.652344 C 11.136719 4.667969 7.304688 4.996094 4.847656 6.972656 C 3.5625 8.15625 1 15.09375 1 21.085938 C 1 21.191406 1.027344 21.296875 1.078125 21.386719 C 2.851562 24.496094 7.679688 25.3125 8.777344 25.347656 C 8.785156 25.347656 8.792969 25.347656 8.796875 25.347656 C 8.992188 25.347656 9.175781 25.253906 9.289062 25.097656 L 10.480469 23.484375 C 7.871094 22.855469 6.488281 21.867188 6.40625 21.808594 C 5.964844 21.480469 5.867188 20.855469 6.195312 20.410156 C 6.519531 19.964844 7.144531 19.867188 7.589844 20.191406 C 7.625 20.21875 10.171875 22 15 22 C 19.847656 22 22.386719 20.210938 22.410156 20.191406 C 22.855469 19.871094 23.480469 19.96875 23.808594 20.414062 C 24.132812 20.855469 24.035156 21.480469 23.59375 21.804688 C 23.511719 21.867188 22.140625 22.851562 19.535156 23.480469 L 20.710938 25.097656 C 20.824219 25.253906 21.007812 25.347656 21.203125 25.347656 C 21.210938 25.347656 21.214844 25.347656 21.222656 25.347656 C 22.320312 25.3125 27.148438 24.496094 28.921875 21.386719 C 28.972656 21.296875 29 21.191406 29 21.085938 C 29 15.09375 26.4375 8.15625 25.121094 6.945312 Z M 11 19 C 9.894531 19 9 17.882812 9 16.5 C 9 15.117188 9.894531 14 11 14 C 12.105469 14 13 15.117188 13 16.5 C 13 17.882812 12.105469 19 11 19 Z M 19 19 C 17.894531 19 17 17.882812 17 16.5 C 17 15.117188 17.894531 14 19 14 C 20.105469 14 21 15.117188 21 16.5 C 21 17.882812 20.105469 19 19 19 Z M 19 19 "/>
</g>
</svg>
