<?xml version="1.0" encoding="UTF-8"?>
<svg xmlns="http://www.w3.org/2000/svg" xmlns:xlink="http://www.w3.org/1999/xlink" viewBox="0 0 30 30" width="30px" height="30px">
<g id="surface105615172">
<path style=" stroke:none;fill-rule:nonzero;fill:rgb(100%,100%,100%);fill-opacity:1;" d="M 9.996094 3 C 6.140625 3 3 6.140625 3 10 L 3 20 C 3 23.859375 6.140625 27 10 27 L 20 27 C 23.859375 27 27 23.859375 27 19.996094 L 27 9.996094 C 27 6.140625 23.859375 3 19.996094 3 Z M 22 7 C 22.550781 7 23 7.449219 23 8 C 23 8.550781 22.550781 9 22 9 C 21.449219 9 21 8.550781 21 8 C 21 7.449219 21.449219 7 22 7 Z M 15 9 C 18.308594 9 21 11.691406 21 15 C 21 18.308594 18.308594 21 15 21 C 11.691406 21 9 18.308594 9 15 C 9 11.691406 11.691406 9 15 9 Z M 15 11 C 12.789062 11 11 12.789062 11 15 C 11 17.210938 12.789062 19 15 19 C 17.210938 19 19 17.210938 19 15 C 19 12.789062 17.210938 11 15 11 Z M 15 11 "/>
</g>
</svg>
