<?xml version="1.0" encoding="UTF-8"?>
<svg xmlns="http://www.w3.org/2000/svg" xmlns:xlink="http://www.w3.org/1999/xlink" viewBox="0 0 30 30" width="30px" height="30px">
<g id="surface154082386">
<path style=" stroke:none;fill-rule:nonzero;fill:rgb(100%,100%,100%);fill-opacity:1;" d="M 15 3 C 8.398438 3 3 8.398438 3 15 C 3 21.601562 8.398438 27 15 27 C 21.601562 27 27 21.601562 27 15 C 27 8.398438 21.601562 3 15 3 Z M 19.730469 21 C 19.511719 21 19.402344 20.890625 19.179688 20.78125 C 17.53125 19.789062 15.441406 19.238281 13.242188 19.238281 C 12.03125 19.238281 10.710938 19.460938 9.609375 19.679688 C 9.390625 19.679688 9.171875 19.789062 9.0625 19.789062 C 8.621094 19.789062 8.289062 19.460938 8.289062 19.019531 C 8.289062 18.578125 8.511719 18.25 8.949219 18.25 C 10.382812 17.921875 11.8125 17.699219 13.351562 17.699219 C 15.882812 17.699219 18.191406 18.359375 20.171875 19.460938 C 20.390625 19.679688 20.613281 19.789062 20.613281 20.230469 C 20.390625 20.78125 20.058594 21 19.730469 21 Z M 20.941406 17.921875 C 20.71875 17.921875 20.5 17.8125 20.28125 17.699219 C 18.410156 16.492188 15.769531 15.832031 12.910156 15.832031 C 11.480469 15.832031 10.160156 16.050781 9.171875 16.269531 C 8.949219 16.382812 8.839844 16.382812 8.621094 16.382812 C 8.070312 16.382812 7.738281 15.941406 7.738281 15.5 C 7.738281 14.949219 7.960938 14.730469 8.507812 14.507812 C 9.828125 14.179688 11.148438 13.847656 13.019531 13.847656 C 16.101562 13.847656 18.960938 14.617188 21.382812 16.050781 C 21.710938 16.269531 21.929688 16.597656 21.929688 16.929688 C 21.820312 17.480469 21.492188 17.921875 20.941406 17.921875 Z M 22.371094 14.398438 C 22.148438 14.398438 22.039062 14.289062 21.710938 14.179688 C 19.511719 12.96875 16.320312 12.199219 13.238281 12.199219 C 11.699219 12.199219 10.050781 12.421875 8.617188 12.75 C 8.398438 12.75 8.289062 12.859375 7.960938 12.859375 C 7.300781 12.972656 6.859375 12.421875 6.859375 11.761719 C 6.859375 11.101562 7.1875 10.769531 7.628906 10.660156 C 9.390625 10.21875 11.261719 10 13.238281 10 C 16.648438 10 20.171875 10.769531 22.921875 12.199219 C 23.25 12.421875 23.582031 12.75 23.582031 13.300781 C 23.472656 13.960938 23.03125 14.398438 22.371094 14.398438 Z M 22.371094 14.398438 "/>
</g>
</svg>
