<?xml version="1.0" encoding="iso-8859-1"?>
<!-- Uploaded to: SVG Repo, www.svgrepo.com, Generator: SVG Repo Mixer Tools -->
<svg fill="#000000" height="800px" width="800px" version="1.1" id="Layer_1" xmlns="http://www.w3.org/2000/svg" xmlns:xlink="http://www.w3.org/1999/xlink" 
	 viewBox="0 0 512 512" xml:space="preserve">
<g>
	<g>
		<path d="M79.428,34.643H22.737C10.179,34.643,0,44.822,0,57.379v56.692c0,12.557,10.179,22.737,22.737,22.737h56.692
			c12.557,0,22.737-10.179,22.737-22.737V57.379C102.165,44.822,91.986,34.643,79.428,34.643z M80.016,113.337l-57.313-0.033V56.611
			l0.621-0.033l56.725,0.033L80.016,113.337z"/>
	</g>
</g>
<g>
	<g>
		<path d="M500.648,68.698h-340.55c-6.275,0-11.352,5.077-11.352,11.352c0,6.274,5.077,11.352,11.352,11.352h340.55
			c6.274,0,11.352-5.077,11.352-11.352C512,73.775,506.923,68.698,500.648,68.698z"/>
	</g>
</g>
<g>
	<g>
		<path d="M79.428,204.918H22.737C10.179,204.918,0,215.097,0,227.654v56.692c0,12.557,10.179,22.737,22.737,22.737h56.692
			c12.557,0,22.737-10.179,22.737-22.737v-56.692C102.165,215.097,91.986,204.918,79.428,204.918z M80.016,283.612l-57.313-0.033
			v-56.692l0.621-0.033l56.725,0.033L80.016,283.612z"/>
	</g>
</g>
<g>
	<g>
		<path d="M500.648,238.973h-340.55c-6.275,0-11.352,5.077-11.352,11.352s5.077,11.352,11.352,11.352h340.55
			c6.274,0,11.352-5.077,11.352-11.352S506.923,238.973,500.648,238.973z"/>
	</g>
</g>
<g>
	<g>
		<path d="M79.428,375.192H22.737C10.179,375.192,0,385.372,0,397.929v56.692c0,12.557,10.179,22.737,22.737,22.737h56.692
			c12.557,0,22.737-10.179,22.737-22.737v-56.692C102.165,385.372,91.986,375.192,79.428,375.192z M80.016,453.886l-57.313-0.033
			v-56.692l0.621-0.033l56.725,0.033L80.016,453.886z"/>
	</g>
</g>
<g>
	<g>
		<path d="M500.648,409.247h-340.55c-6.275,0-11.352,5.077-11.352,11.352s5.077,11.352,11.352,11.352h340.55
			c6.274,0,11.352-5.077,11.352-11.352S506.923,409.247,500.648,409.247z"/>
	</g>
</g>
</svg>