<?xml version="1.0" encoding="iso-8859-1"?>
<!-- Generator: Adobe Illustrator 19.0.0, SVG Export Plug-In . SVG Version: 6.00 Build 0)  -->
<svg version="1.1" id="Layer_1" xmlns="http://www.w3.org/2000/svg" xmlns:xlink="http://www.w3.org/1999/xlink" x="0px" y="0px"
	 viewBox="0 0 512 512" style="enable-background:new 0 0 512 512;" xml:space="preserve">
<g>
	<g>
		<path d="M322.332,0v241.969c0,22.926-5.184,39.824-16.645,50.69c-11.461,10.87-27.536,16.301-48.762,16.301
			c-21.396,0-37.958-5.477-49.676-16.43c-11.716-10.951-17.58-27.803-17.58-50.564V0h-87.061v241.969
			c0,42.285,14.591,75.061,42.78,98.325c28.187,23.268,65.542,34.897,111.562,34.897c45.51,0,82.25-11.629,110.358-34.897
			c28.102-23.264,42.086-56.04,42.086-98.325V0H322.332z"/>
	</g>
</g>
<g>
	<g>
		<rect x="17.619" y="443.595" width="476.761" height="68.405"/>
	</g>
</g>
<g>
</g>
<g>
</g>
<g>
</g>
<g>
</g>
<g>
</g>
<g>
</g>
<g>
</g>
<g>
</g>
<g>
</g>
<g>
</g>
<g>
</g>
<g>
</g>
<g>
</g>
<g>
</g>
<g>
</g>
</svg>
