<?xml version="1.0" encoding="iso-8859-1"?>
<!-- Generator: Adobe Illustrator 18.0.0, SVG Export Plug-In . SVG Version: 6.00 Build 0)  -->
<!DOCTYPE svg PUBLIC "-//W3C//DTD SVG 1.1//EN" "http://www.w3.org/Graphics/SVG/1.1/DTD/svg11.dtd">
<svg version="1.1" id="Capa_1" xmlns="http://www.w3.org/2000/svg" xmlns:xlink="http://www.w3.org/1999/xlink" x="0px" y="0px"
	 viewBox="0 0 58 58" style="enable-background:new 0 0 58 58;" xml:space="preserve">
<g>
	<path d="M31,56h24V32H31V56z M33,34h20v20h-9V41.414l4.293,4.293l1.414-1.414L43,37.586l-6.707,6.707l1.414,1.414L42,41.414V54h-9
		V34z"/>
	<path d="M21.569,13.569C21.569,10.498,19.071,8,16,8s-5.569,2.498-5.569,5.569c0,3.07,2.498,5.568,5.569,5.568
		S21.569,16.64,21.569,13.569z M12.431,13.569C12.431,11.602,14.032,10,16,10s3.569,1.602,3.569,3.569S17.968,17.138,16,17.138
		S12.431,15.537,12.431,13.569z"/>
	<path d="M6.25,36.661C6.447,36.886,6.723,37,7,37c0.234,0,0.47-0.082,0.66-0.249l16.313-14.362l7.319,7.318
		c0.391,0.391,1.023,0.391,1.414,0s0.391-1.023,0-1.414l-1.825-1.824l9.181-10.054l11.261,10.323
		c0.408,0.373,1.04,0.345,1.413-0.062c0.373-0.407,0.346-1.04-0.062-1.413l-12-11c-0.196-0.179-0.452-0.279-0.72-0.262
		c-0.265,0.012-0.515,0.129-0.694,0.325l-9.794,10.727l-4.743-4.743c-0.374-0.372-0.972-0.391-1.368-0.044L6.339,35.249
		C5.925,35.614,5.884,36.246,6.25,36.661z"/>
	<path d="M57,2H1C0.448,2,0,2.447,0,3v44c0,0.553,0.448,1,1,1h24c0.552,0,1-0.447,1-1s-0.448-1-1-1H2V4h54v23c0,0.553,0.448,1,1,1
		s1-0.447,1-1V3C58,2.447,57.552,2,57,2z"/>
</g>
<g>
</g>
<g>
</g>
<g>
</g>
<g>
</g>
<g>
</g>
<g>
</g>
<g>
</g>
<g>
</g>
<g>
</g>
<g>
</g>
<g>
</g>
<g>
</g>
<g>
</g>
<g>
</g>
<g>
</g>
</svg>
